<?xml version="1.0" encoding="utf-8"?>
<!-- Generator: Adobe Illustrator 25.0.1, SVG Export Plug-In . SVG Version: 6.00 Build 0)  -->
<svg version="1.1" id="Capa_1" xmlns="http://www.w3.org/2000/svg" xmlns:xlink="http://www.w3.org/1999/xlink" x="0px" y="0px"
	 viewBox="0 0 300 110" style="enable-background:new 0 0 300 110;" xml:space="preserve">
<style type="text/css">
	.st0{fill:#89FFD5;}
	.st1{fill:#F489FF;}
	.st2{fill:#FFFFFF;}
</style>
<g>
	<path class="st0" d="M86.44,27.47v3.77c0,0.51-0.62,0.76-0.97,0.4c-0.91-0.91-1.82-1.81-2.8-2.63c-3.84-3.19-8.33-4.54-13.26-4.15
		c-0.02,0-0.04,0-0.06,0.01c-7.66,0.63-13.94,5.53-16.47,12.6c-0.28,0.79-0.52,1.61-0.71,2.45c-0.84,3.77-0.72,7.29,0.35,10.53
		c-0.78,1.91-1.91,3.76-3.37,5.53c-1.56,1.89-3.13,3.78-4.7,5.67c-0.83-0.85-1.66-1.69-2.49-2.54c-7.66-7.82-10.37-17.17-7.98-27.87
		c0.58-2.62,1.48-5.09,2.66-7.36c3.73-7.21,10.22-12.5,18.13-14.64c0,0,0,0,0,0c1.73-0.47,3.54-0.79,5.39-0.94
		c7.55-0.62,14.44,1.43,20.31,6.31c0.02,0.02,0.04,0.04,0.07,0.05C84.31,17.84,86.44,22.55,86.44,27.47z"/>
	<path class="st0" d="M86.44,88.4v14.52c0,0.34-0.28,0.57-0.57,0.57c-0.14,0-0.28-0.05-0.4-0.17c-1.62-1.63-3.22-3.27-4.83-4.91
		c-9.32-9.47-18.67-18.92-27.98-28.39c2.5-3,4.99-6.01,7.49-9.02c7.53,7.67,15.09,15.32,22.64,22.98c1.06,1.08,2.11,2.15,3.17,3.22
		C86.27,87.52,86.44,87.95,86.44,88.4z"/>
	<path class="st1" d="M34.44,23.77c-4.97,0.01-9.36,1.73-12.93,5.25c-0.91,0.9-1.75,1.87-2.57,2.85c-0.32,0.39-0.96,0.19-1-0.32
		l-0.32-3.76c-0.41-4.91,1.32-9.78,4.81-13.24c0.02-0.02,0.04-0.04,0.06-0.06c5.44-5.36,12.12-7.98,19.7-7.99
		c4.49-0.01,8.76,0.96,12.57,2.75c-7.9,2.14-14.4,7.42-18.13,14.64C35.92,23.81,35.19,23.77,34.44,23.77z"/>
	<path class="st0" d="M27.34,17.14c2.21-0.35,4.3,0.73,5.26,2.55c0.08-0.49,0.09-1,0.01-1.51c-0.42-2.64-2.99-4.42-5.73-3.98
		c-2.74,0.44-4.62,2.93-4.2,5.57c0.08,0.51,0.25,0.99,0.48,1.43C23.48,19.18,25.13,17.5,27.34,17.14z"/>
	<path class="st1" d="M74.28,18.87c2.15,0.63,3.57,2.51,3.65,4.56c0.28-0.41,0.51-0.86,0.65-1.36c0.75-2.56-0.8-5.27-3.47-6.06
		c-2.67-0.78-5.44,0.66-6.19,3.22c-0.15,0.5-0.2,1-0.19,1.5C69.92,19.06,72.13,18.24,74.28,18.87z"/>
	<path class="st1" d="M64.62,55.61c-1.49,1.8-2.98,3.6-4.47,5.4c-2.49,3.01-4.99,6.01-7.49,9.02C44.9,79.35,37.13,88.67,29.37,98
		c-1.47,1.76-2.93,3.54-4.41,5.3c-0.12,0.14-0.27,0.2-0.43,0.2c-0.28,0-0.54-0.2-0.57-0.52l-1.22-14.47
		c-0.04-0.45,0.1-0.89,0.39-1.23c0.97-1.15,1.93-2.32,2.89-3.48c6.14-7.38,12.29-14.75,18.42-22.14c1.57-1.89,3.14-3.78,4.7-5.67
		c1.47-1.77,2.59-3.62,3.37-5.53c1.64-4.03,1.77-8.36,0.36-12.98c2.54-7.07,8.81-11.98,16.47-12.6c0.02,0,0.04,0,0.06-0.01
		c0.3,0.75,0.57,1.51,0.82,2.29C73.5,37.63,71.59,47.17,64.62,55.61z"/>
	<path class="st0" d="M111.61,50.05h4.74c6.01,0,6.82,3.86,5.59,9.59l-2.17,10.13c-1.17,5.45-2.51,8.27-8.32,8.27h-5.79
		L111.61,50.05z M109.94,74.96h1.47c2.77,0,3.81-1.28,4.62-5.1l2.42-11.37c0.77-3.55,0.46-5.35-2.46-5.35h-1.39L109.94,74.96z"/>
	<path class="st2" d="M133.14,56.5h3.67l-4.59,21.54h-3.67L133.14,56.5z M134.79,48.82h3.67l-0.96,4.49h-3.67L134.79,48.82z"/>
	<path class="st2" d="M149.43,56.5c-0.35,6.94-0.59,14.55-0.96,17.28h0.04c0.77-2.59,4.9-13.02,6.51-17.28h3.81l-9.3,21.54h-3.93
		l0.23-21.54H149.43z"/>
	<path class="st2" d="M168.38,68.17c-0.06,0.28-0.66,3.13-0.74,3.48c-0.44,2.02-0.34,3.68,1.42,3.68c1.64,0,2.1-1.55,2.42-3.05
		l0.13-0.6h3.61l-0.11,0.49c-0.66,3.08-1.69,6.21-6.39,6.21c-5.22,0-5.32-4.06-4.53-7.72l1.6-7.56c0.7-3.36,1.87-6.9,6.59-6.9
		c5.12,0,5.45,3.68,4.68,7.26c-0.06,0.29-0.94,4.39-1.01,4.71H168.38z M173.13,65.21c0.05-0.25,0.57-2.72,0.62-2.96
		c0.34-1.69,0.12-3.16-1.56-3.16c-1.62,0-2.21,1.49-2.57,3.22l-0.63,2.9H173.13z"/>
	<path class="st2" d="M186.94,63.81c0.74-3.53,1.23-5.8,1.48-7.31h3.48c-0.04,0.47-0.17,1.48-0.54,3.19
		c1.17-2.61,3.17-3.47,5.08-3.5l-0.96,4.33c-2.84,0.05-4.53,1.49-5.38,5.51l-2.51,12.01h-3.67L186.94,63.81z"/>
	<path class="st1" d="M217.3,67.09c1.06-4.91,2.28-10.38,3.04-13.5h-0.04c-1.66,4.79-5.85,16.25-8.87,24.44h-3.49
		c0.55-7.24,1.37-19.46,1.8-24.47h-0.08c-0.62,3.26-1.92,9.3-2.9,14.11l-2.09,10.36h-3.44l5.95-27.99h5.56
		c-0.55,8.43-1.04,16.74-1.47,20.55h0.04c1.25-3.77,5.12-13.97,7.74-20.55h5.47l-5.95,27.99h-3.61L217.3,67.09z"/>
	<path class="st2" d="M233.64,56.5h3.67l-4.59,21.54h-3.67L233.64,56.5z M235.29,48.82h3.67L238,53.31h-3.67L235.29,48.82z"/>
	<path class="st2" d="M246.07,63.11c0.91-4.35,1.19-5.67,1.36-6.61h3.59c-0.07,0.53-0.14,1.04-0.3,1.78
		c0.89-1.22,2.2-2.11,4.11-2.11c2.61,0,3.95,1.9,3.24,5.22l-3.55,16.66h-3.67l3.35-15.79c0.43-2,0.01-3-1.39-3
		c-1.54,0-2.49,1.22-3.16,4.44l-3.07,14.35h-3.67L246.07,63.11z"/>
	<path class="st2" d="M282.44,48.82l-4.98,23.42c-0.64,2.98-0.93,4.55-1.14,5.8h-3.57c0.03-0.55,0.07-1.12,0.22-1.82
		c-0.86,1.26-1.83,2.16-3.86,2.16c-3.46,0-3.99-3.22-3.15-7.13l1.8-8.33c0.74-3.4,1.98-6.75,5.73-6.75c1.69,0,2.91,0.72,3.31,1.72
		l1.9-9.07H282.44z M271.46,62.94l-1.83,8.59c-0.38,1.78-0.4,3.61,1.36,3.61c1.88,0,2.63-1.86,3.23-4.68l1.5-7
		c0.57-2.58,0.47-4.21-1.5-4.21C272.67,59.25,271.93,60.67,271.46,62.94z"/>
</g>
</svg>
